<svg width="598" height="455" viewBox="0 0 598 455" fill="none" xmlns="http://www.w3.org/2000/svg">
<path d="M388.928 339.799L383.738 302.854L455.87 143.904L487.722 139.429L494.906 190.566L476.055 193.215L430.641 293.834L430.884 295.568L562.52 277.076L567.802 314.67L388.928 339.799ZM500.908 363.841L493.846 313.57L492.414 297.088L470.604 141.834L514.591 135.654L545.762 357.539L500.908 363.841Z" fill="#282828"/>
<path d="M291.071 119.45C356.138 119.45 408.884 172.196 408.884 237.263C408.884 302.318 356.138 355.052 291.071 355.052C226.004 355.052 173.281 302.318 173.281 237.263C173.269 172.196 226.004 119.45 291.071 119.45ZM291.071 254.908C281.661 254.893 272.343 256.763 263.668 260.409C254.993 264.054 247.137 269.401 240.563 276.133C239.751 276.963 239.11 277.944 238.677 279.02C238.244 280.097 238.027 281.249 238.039 282.409C238.051 283.57 238.292 284.716 238.747 285.784C239.202 286.851 239.863 287.819 240.692 288.631C241.521 289.443 242.502 290.084 243.579 290.517C244.656 290.95 245.807 291.167 246.968 291.154C248.128 291.142 249.275 290.902 250.343 290.447C251.41 289.992 252.378 289.331 253.19 288.501C258.124 283.455 264.016 279.445 270.521 276.706C277.026 273.967 284.013 272.555 291.071 272.553C305.5 272.553 318.987 278.324 328.893 288.419C329.707 289.247 330.675 289.906 331.744 290.359C332.812 290.812 333.959 291.05 335.12 291.06C336.28 291.07 337.431 290.851 338.507 290.416C339.583 289.981 340.563 289.339 341.39 288.525C342.218 287.711 342.877 286.743 343.33 285.674C343.784 284.606 344.022 283.459 344.032 282.298C344.042 281.138 343.823 279.987 343.388 278.911C342.953 277.835 342.31 276.855 341.496 276.027C334.926 269.321 327.082 263.996 318.424 260.366C309.767 256.735 300.471 254.871 291.083 254.884M255.734 198.981C253.766 198.926 251.807 199.265 249.973 199.98C248.138 200.694 246.466 201.77 245.055 203.142C243.643 204.514 242.521 206.155 241.755 207.969C240.989 209.782 240.594 211.731 240.594 213.699C240.594 215.668 240.989 217.616 241.755 219.43C242.521 221.243 243.643 222.884 245.055 224.257C246.466 225.629 248.138 226.704 249.973 227.419C251.807 228.133 253.766 228.473 255.734 228.417C259.565 228.309 263.203 226.71 265.875 223.962C268.547 221.214 270.041 217.532 270.041 213.699C270.041 209.866 268.547 206.185 265.875 203.436C263.203 200.688 259.565 199.09 255.734 198.981ZM326.408 198.981C324.44 198.926 322.481 199.265 320.646 199.98C318.812 200.694 317.14 201.77 315.728 203.142C314.317 204.514 313.195 206.155 312.428 207.969C311.662 209.782 311.267 211.731 311.267 213.699C311.267 215.668 311.662 217.616 312.428 219.43C313.195 221.243 314.317 222.884 315.728 224.257C317.14 225.629 318.812 226.704 320.646 227.419C322.481 228.133 324.44 228.473 326.408 228.417C330.239 228.309 333.877 226.71 336.549 223.962C339.22 221.214 340.715 217.532 340.715 213.699C340.715 209.866 339.22 206.185 336.549 203.436C333.877 200.688 330.239 199.09 326.408 198.981Z" fill="#FFD101"/>
<path d="M14.7698 310.508V273.2L108.312 125.83H140.478V177.47H121.441L62.4709 270.793V272.544H195.399V310.508H14.7698ZM122.316 349.894V299.129L123.191 282.609V125.83H167.61V349.894H122.316Z" fill="#282828"/>
<path d="M355.175 51.8302C355.175 58.6891 353.856 64.503 351.218 69.2718C348.58 74.0405 345.008 77.6628 340.503 80.1385C336.019 82.6142 330.986 83.852 325.405 83.852C319.805 83.852 314.762 82.604 310.277 80.108C305.793 77.612 302.231 73.9898 299.593 69.2413C296.975 64.4725 295.667 58.6688 295.667 51.8302C295.667 44.9713 296.975 39.1574 299.593 34.3886C302.231 29.6198 305.793 25.9976 310.277 23.5219C314.762 21.0462 319.805 19.8083 325.405 19.8083C330.986 19.8083 336.019 21.0462 340.503 23.5219C345.008 25.9976 348.58 29.6198 351.218 34.3886C353.856 39.1574 355.175 44.9713 355.175 51.8302ZM339.773 51.8302C339.773 47.7717 339.194 44.3422 338.038 41.5418C336.901 38.7414 335.258 36.6208 333.107 35.18C330.976 33.7393 328.409 33.0189 325.405 33.0189C322.422 33.0189 319.855 33.7393 317.704 35.18C315.553 36.6208 313.9 38.7414 312.743 41.5418C311.606 44.3422 311.038 47.7717 311.038 51.8302C311.038 55.8887 311.606 59.3182 312.743 62.1186C313.9 64.919 315.553 67.0396 317.704 68.4803C319.855 69.9211 322.422 70.6415 325.405 70.6415C328.409 70.6415 330.976 69.9211 333.107 68.4803C335.258 67.0396 336.901 64.919 338.038 62.1186C339.194 59.3182 339.773 55.8887 339.773 51.8302ZM385.797 83.8825C380.886 83.8825 376.665 82.878 373.134 80.869C369.623 78.8398 366.914 76.0191 365.007 72.407C363.119 68.7746 362.176 64.5638 362.176 59.7748C362.176 54.9654 363.119 50.7547 365.007 47.1426C366.914 43.5102 369.623 40.6895 373.134 38.6805C376.665 36.6513 380.886 35.6366 385.797 35.6366C390.707 35.6366 394.918 36.6513 398.429 38.6805C401.96 40.6895 404.669 43.5102 406.556 47.1426C408.463 50.7547 409.417 54.9654 409.417 59.7748C409.417 64.5638 408.463 68.7746 406.556 72.407C404.669 76.0191 401.96 78.8398 398.429 80.869C394.918 82.878 390.707 83.8825 385.797 83.8825ZM385.888 72.6505C387.674 72.6505 389.185 72.1026 390.423 71.0068C391.661 69.911 392.605 68.389 393.254 66.4409C393.924 64.4928 394.259 62.2403 394.259 59.6835C394.259 57.086 393.924 54.8132 393.254 52.8651C392.605 50.917 391.661 49.3951 390.423 48.2993C389.185 47.2035 387.674 46.6556 385.888 46.6556C384.041 46.6556 382.479 47.2035 381.2 48.2993C379.942 49.3951 378.978 50.917 378.309 52.8651C377.659 54.8132 377.334 57.086 377.334 59.6835C377.334 62.2403 377.659 64.4928 378.309 66.4409C378.978 68.389 379.942 69.911 381.2 71.0068C382.479 72.1026 384.041 72.6505 385.888 72.6505ZM417.042 100.533V36.2454H431.775V44.2509H432.231C432.84 42.8304 433.702 41.4606 434.819 40.1416C435.955 38.8226 437.396 37.7471 439.141 36.9151C440.906 36.0628 443.017 35.6366 445.472 35.6366C448.719 35.6366 451.753 36.4889 454.574 38.1935C457.414 39.8981 459.708 42.526 461.453 46.0772C463.198 49.6284 464.07 54.1537 464.07 59.653C464.07 64.9494 463.228 69.3834 461.544 72.9549C459.88 76.5264 457.628 79.205 454.787 80.9908C451.966 82.7765 448.831 83.6694 445.381 83.6694C443.027 83.6694 440.988 83.2839 439.263 82.5127C437.538 81.7416 436.087 80.727 434.91 79.4688C433.753 78.2107 432.86 76.8612 432.231 75.4204H431.927V100.533H417.042ZM431.622 59.6226C431.622 62.1389 431.957 64.3305 432.627 66.1974C433.317 68.0643 434.301 69.5153 435.58 70.5502C436.878 71.5648 438.431 72.0721 440.237 72.0721C442.063 72.0721 443.615 71.5648 444.894 70.5502C446.172 69.5153 447.136 68.0643 447.786 66.1974C448.455 64.3305 448.79 62.1389 448.79 59.6226C448.79 57.1063 448.455 54.9248 447.786 53.0782C447.136 51.2316 446.172 49.8009 444.894 48.7863C443.636 47.7716 442.083 47.2643 440.237 47.2643C438.41 47.2643 436.858 47.7615 435.58 48.7558C434.301 49.7502 433.317 51.1707 432.627 53.0173C431.957 54.8639 431.622 57.0657 431.622 59.6226ZM512.689 50.5213L499.022 50.8866C498.88 49.9125 498.495 49.0501 497.865 48.2993C497.236 47.5281 496.415 46.9295 495.4 46.5034C494.406 46.0569 493.249 45.8337 491.93 45.8337C490.205 45.8337 488.734 46.1787 487.516 46.8686C486.319 47.5586 485.73 48.492 485.751 49.669C485.73 50.5822 486.096 51.3736 486.847 52.0433C487.618 52.7129 488.987 53.2507 490.956 53.6565L499.966 55.3611C504.633 56.254 508.103 57.7354 510.376 59.8052C512.669 61.8751 513.826 64.6146 513.846 68.0238C513.826 71.23 512.872 74.0202 510.985 76.3945C509.118 78.7687 506.561 80.6154 503.314 81.9344C500.067 83.2331 496.354 83.8825 492.173 83.8825C485.497 83.8825 480.231 82.5127 476.375 79.7732C472.54 77.0134 470.349 73.3201 469.801 68.6934L484.503 68.3281C484.827 70.0327 485.67 71.3315 487.029 72.2243C488.389 73.1172 490.124 73.5637 492.234 73.5637C494.142 73.5637 495.694 73.2085 496.891 72.4983C498.089 71.788 498.697 70.8444 498.718 69.6675C498.697 68.6122 498.231 67.7701 497.318 67.141C496.404 66.4917 494.974 65.9843 493.026 65.6191L484.868 64.0667C480.18 63.2144 476.69 61.6417 474.397 59.3486C472.104 57.0353 470.967 54.0928 470.988 50.5213C470.967 47.3962 471.799 44.7277 473.484 42.5158C475.168 40.2837 477.563 38.5791 480.667 37.4021C483.772 36.2251 487.435 35.6366 491.656 35.6366C497.987 35.6366 502.979 36.9658 506.632 39.6241C510.285 42.2622 512.304 45.8946 512.689 50.5213ZM538.677 20.6606L537.276 63.9145H524.766L523.366 20.6606H538.677ZM531.006 83.8825C528.835 83.8825 526.968 83.1114 525.405 81.5691C523.863 80.0269 523.092 78.1599 523.092 75.9683C523.092 73.8173 523.863 71.9808 525.405 70.4589C526.968 68.9166 528.835 68.1455 531.006 68.1455C533.096 68.1455 534.933 68.9166 536.515 70.4589C538.119 71.9808 538.92 73.8173 538.92 75.9683C538.92 77.4294 538.545 78.7586 537.794 79.9559C537.063 81.1531 536.099 82.1069 534.902 82.8171C533.725 83.5274 532.426 83.8825 531.006 83.8825Z" fill="#282828"/>
</svg>
