<svg width="639" height="602" viewBox="0 0 639 602" fill="none" xmlns="http://www.w3.org/2000/svg">
<path d="M315.5 -88C321.854 145.896 440.695 269.453 639 315.091C408.534 312.587 256.903 407.968 184.5 602C185.441 354.886 71.6201 226.806 -139 198.909C75.6207 197.1 240.665 121.546 315.5 -88Z" fill="#888888" fill-opacity="0.07"/>
<path d="M114.3 383C115.087 413.271 129.808 429.262 154.373 435.168C125.824 434.844 107.041 447.188 98.0726 472.3C98.1893 440.318 84.09 423.742 58 420.132C84.5855 419.898 105.03 410.12 114.3 383Z" fill="#F7F7F7"/>
<path d="M483.3 102C484.087 132.271 498.808 148.262 523.373 154.168C494.824 153.844 476.041 166.188 467.073 191.3C467.189 159.318 453.09 142.742 427 139.132C453.586 138.898 474.03 129.12 483.3 102Z" fill="#F7F7F7"/>
<path d="M421.351 75C421.845 93.4989 431.089 103.271 446.513 106.881C428.587 106.682 416.793 114.226 411.162 129.572C411.235 110.028 402.382 99.8981 386 97.6917C402.693 97.5486 415.53 91.5731 421.351 75Z" fill="#F7F7F7"/>
</svg>
